<svg width="128" height="128" viewBox="0 0 128 128" fill="none" xmlns="http://www.w3.org/2000/svg">
<g clip-path="url(#clip0)">
<rect width="128" height="128" rx="30" fill="white"/>
<rect width="128" height="128" fill="#447D8F"/>
<path d="M83.2002 27.78C86.1335 27.78 88.4802 28.6233 90.2402 30.31C92.0002 31.9233 92.8802 34.0867 92.8802 36.8V76.4C92.8802 85.3467 90.1668 92.13 84.7402 96.75C79.3868 101.37 71.5035 103.68 61.0902 103.68C57.0568 103.68 53.2435 103.313 49.6502 102.58C46.0568 101.847 43.0135 100.783 40.5202 99.39C39.2002 98.6567 38.1368 97.7033 37.3302 96.53C36.5968 95.3567 36.2302 94.0367 36.2302 92.57C36.2302 90.4433 36.7435 88.72 37.7702 87.4C38.8702 86.08 40.2635 85.42 41.9502 85.42C43.2702 85.42 45.6535 85.97 49.1002 87.07C51.3735 87.8033 53.3902 88.3533 55.1502 88.72C56.9102 89.16 58.7068 89.38 60.5402 89.38C65.0135 89.38 68.2768 88.4267 70.3302 86.52C72.4568 84.6867 73.5202 81.7533 73.5202 77.72V73.54C71.9068 75.96 69.5968 77.9033 66.5902 79.37C63.5835 80.7633 60.3202 81.46 56.8002 81.46C52.1068 81.46 47.9268 80.36 44.2602 78.16C40.5935 75.96 37.7335 72.8433 35.6802 68.81C33.6268 64.7033 32.6002 59.9733 32.6002 54.62C32.6002 49.2667 33.6268 44.5367 35.6802 40.43C37.7335 36.3233 40.5935 33.17 44.2602 30.97C47.9268 28.6967 52.1068 27.56 56.8002 27.56C60.3935 27.56 63.6935 28.2933 66.7002 29.76C69.7068 31.2267 72.0168 33.2433 73.6302 35.81C73.7768 33.3167 74.6935 31.3733 76.3802 29.98C78.1402 28.5133 80.4135 27.78 83.2002 27.78ZM62.7402 66.83C66.1868 66.83 68.8635 65.7667 70.7702 63.64C72.6768 61.5133 73.6302 58.5067 73.6302 54.62C73.6302 50.7333 72.6768 47.69 70.7702 45.49C68.8635 43.29 66.1868 42.19 62.7402 42.19C59.3668 42.19 56.7268 43.29 54.8202 45.49C52.9135 47.6167 51.9602 50.66 51.9602 54.62C51.9602 58.4333 52.9135 61.44 54.8202 63.64C56.8002 65.7667 59.4402 66.83 62.7402 66.83Z" fill="#F47A60"/>
</g>
<defs>
<clipPath id="clip0">
<rect width="128" height="128" rx="30" fill="white"/>
</clipPath>
</defs>
</svg>
